<svg width="108" height="108" viewBox="0 0 108 108" fill="none" xmlns="http://www.w3.org/2000/svg">
<path fill-rule="evenodd" clip-rule="evenodd" d="M84.3116 31.7069C84.3116 31.2826 84.6556 30.9387 85.0799 30.9387C85.5041 30.9387 85.8481 31.2826 85.8481 31.7069C85.8481 32.1312 85.5041 32.4751 85.0799 32.4751C84.6556 32.4751 84.3116 32.1312 84.3116 31.7069ZM85.0799 27.5137C82.764 27.5137 80.8866 29.391 80.8866 31.7069C80.8866 32.0899 80.938 32.4609 81.0342 32.8134L72.3236 39.0075C71.7343 38.6917 71.0607 38.5125 70.3453 38.5125C68.0295 38.5125 66.1521 40.3899 66.1521 42.7057C66.1521 44.5249 67.3106 46.0735 68.93 46.6541L68.93 74.4483C67.7027 74.9758 66.7778 76.0724 66.4873 77.4059H66.1907L63.0524 77.4358H62.4845L37.229 77.6151C34.838 77.645 32.8952 75.7321 32.8952 73.3411L32.8654 69.7246L61.5879 69.5154C62.365 69.5154 62.9926 68.8877 62.9926 68.1107L62.8432 45.9635L62.8133 39.9859L62.7834 35.6222C62.7834 34.7256 62.0362 34.0082 61.1396 34.0082L36.0933 34.1876C34.3598 34.1876 32.7757 34.9647 31.6997 36.1602C30.7433 37.2362 30.1754 38.6409 30.1754 40.1951L30.4145 74.1481C30.4145 77.4656 33.1343 80.1257 36.422 80.0958L62.5144 79.9165H63.0823L66.2206 79.8866H66.7007C67.3257 81.4172 68.8291 82.4957 70.5844 82.4957C72.9003 82.4957 74.7777 80.6184 74.7777 78.3025C74.7777 76.4167 73.5328 74.8217 71.82 74.2943L71.82 46.6323C73.4083 46.0355 74.5386 44.5026 74.5386 42.7057C74.5386 42.1681 74.4374 41.6541 74.253 41.1817L82.7108 35.1673C83.3849 35.6296 84.2008 35.9001 85.0799 35.9001C87.3957 35.9001 89.2731 34.0227 89.2731 31.7069C89.2731 29.391 87.3957 27.5137 85.0799 27.5137ZM69.8162 78.3025C69.8162 77.8783 70.1602 77.5343 70.5844 77.5343C71.0087 77.5343 71.3527 77.8783 71.3527 78.3025C71.3527 78.7268 71.0087 79.0707 70.5844 79.0707C70.1602 79.0707 69.8162 78.7268 69.8162 78.3025ZM69.5771 42.7057C69.5771 42.2815 69.9211 41.9375 70.3453 41.9375C70.7696 41.9375 71.1135 42.2815 71.1135 42.7057C71.1135 43.13 70.7696 43.4739 70.3453 43.4739C69.9211 43.4739 69.5771 43.13 69.5771 42.7057Z" fill="#4EAAFF"/>
</svg>
