<?xml version="1.0" encoding="utf-8"?>
<!-- Generator: Adobe Illustrator 19.0.0, SVG Export Plug-In . SVG Version: 6.00 Build 0)  -->
<svg version="1.1" id="Layer_1" xmlns="http://www.w3.org/2000/svg" xmlns:xlink="http://www.w3.org/1999/xlink" x="0px" y="0px"
	 viewBox="0 0 170.5 107.7" style="enable-background:new 0 0 170.5 107.7;" xml:space="preserve">
<style type="text/css">
	.st0{fill:#2A2B2B;}
	.st1{fill:none;stroke:#231F20;stroke-width:3;stroke-miterlimit:10;}
</style>
<g id="XMLID_2_">
	<g id="XMLID_23_">
		<g id="XMLID_27_">
			<path id="XMLID_36_" class="st0" d="M134.3,33.4c0,0.6-0.3,1.5-0.8,1.8L92,63.5H23.4c0,0-6.2,0.6-6.2,7.9c0,7.4,7.6,7.1,7.6,7.1
				h61.6c-0.4,1-0.5,1.7-0.5,2.5c0,1.1,0,2.3,1,3.1v1.5c-16,0-60.4-0.1-63.5-0.1c-3.8,0-12.3-4.3-12.3-13.7c0-9.4,6.7-12.9,6.7-12.9
				l47.4-27.5h67.4c0.5,0,1,0.3,1.3,0.6C134.1,32.4,134.3,32.9,134.3,33.4z"/>
			<path id="XMLID_35_" class="st0" d="M86.9,78.5v5.6c-1-0.8-1-2-1-3.1c0-0.9,0.2-1.5,0.5-2.5H86.9z"/>
			<path id="XMLID_41_" class="st0" d="M127.4,61.2L96.1,82.5l-0.3,0.1v-4.8l-1.5-0.3c-0.3-0.3-0.6-0.6-1-0.8l31.1-21
				c0,0.2,0,0.4,0,0.5c0,2,1.2,3.8,2.9,4.6L127.4,61.2z"/>
			<path id="XMLID_38_" class="st0" d="M94.5,77.5l-1.2-0.2l-0.9,0.1l1-0.7C93.8,76.9,94.2,77.2,94.5,77.5z"/>
			<path id="XMLID_33_" class="st0" d="M127.3,60.8c-1.7-0.8-2.9-2.6-2.9-4.6c0-0.2,0-0.4,0-0.5l0.3-0.2L127.3,60.8z"/>
		</g>
	</g>
	<path id="XMLID_40_" class="st1" d="M96,81.1c0,2.8-2.3,5.1-5.1,5.1c-1.7,0-3.2-0.8-4.1-2.1c-0.6-0.8-1-1.9-1-3
		c0-0.9,0.2-1.7,0.6-2.4c0.9-1.6,2.6-2.7,4.5-2.7c0.9,0,1.8,0.2,2.5,0.7c0.4,0.2,0.8,0.5,1.1,0.8C95.4,78.5,96,79.7,96,81.1z"/>
	<path id="XMLID_34_" class="st1" d="M134.6,56.2c0,2.8-2.3,5.1-5.1,5.1c-0.8,0-1.6-0.2-2.2-0.5c-1.7-0.8-2.9-2.6-2.9-4.6
		c0-0.2,0-0.4,0-0.5c0.3-2.6,2.4-4.6,5.1-4.6C132.3,51.1,134.6,53.4,134.6,56.2z"/>
</g>
<g id="XMLID_24_">
	<circle id="XMLID_25_" class="st1" cx="149.7" cy="19.3" r="5.9"/>
</g>
</svg>
